<svg width="32" height="29" viewBox="0 0 32 29" fill="none" xmlns="http://www.w3.org/2000/svg">
<g clip-path="url(#clip0)">
<path fill-rule="evenodd" clip-rule="evenodd" d="M10.9908 27.0833C11.8034 26.7953 12.6967 26.2962 13.6101 25.6164C13.7589 26.0613 14.022 26.4588 14.3729 26.7689C11.9233 28.575 9.54131 29.2347 8.04171 28.3666C6.36583 27.3961 5.83919 24.566 6.51352 21.0014C6.58717 20.6136 6.67162 20.2284 6.76681 19.8459C6.47382 19.7621 6.18316 19.6709 5.89489 19.5725C2.33982 18.353 0 16.3415 0 14.3358C0 12.3956 2.17982 10.5219 5.59273 9.32903C5.97424 9.19544 6.37299 9.06994 6.78595 8.95224C6.6976 8.59612 6.61825 8.23848 6.54785 7.87938C5.84049 4.2517 6.33801 1.35167 8.01839 0.376318C9.51284 -0.492068 11.8565 0.179947 14.321 2.00548C13.9773 2.32522 13.7243 2.73079 13.5877 3.18077C11.499 1.61274 9.62907 1.03793 8.70953 1.57242C7.69643 2.16056 7.29416 4.5053 7.89982 7.6134C7.96567 7.94782 8.03954 8.28024 8.12138 8.61055C9.04607 8.40022 10.0301 8.22953 11.0497 8.09622C11.0172 8.32857 11.0006 8.56287 11.0001 8.79751V9.49646C10.1279 9.61676 9.28673 9.76504 8.49285 9.94354C8.77239 10.85 9.11604 11.7889 9.51734 12.7438C9.80778 12.1787 10.1111 11.6208 10.4272 11.07C10.561 10.8383 10.7012 10.6108 10.8415 10.3832C10.8945 10.2973 10.9475 10.2114 11.0001 10.1252V12.8887C10.7404 13.3774 10.4881 13.8699 10.2493 14.369C10.4881 14.8668 10.741 15.357 11.0001 15.8447V18.602C10.9449 18.5119 10.8893 18.4222 10.8336 18.3325C10.6976 18.1132 10.5616 17.8941 10.4327 17.6706C10.115 17.1194 9.81049 16.5612 9.51897 15.9962C9.10926 16.9712 8.75845 17.9303 8.47376 18.853C9.26243 19.0237 10.1098 19.1641 11.0001 19.2757V19.9305C11.0006 20.18 11.0193 20.4291 11.0562 20.676C10.0129 20.5521 9.02178 20.3905 8.10191 20.1863C8.0134 20.5413 7.93502 20.899 7.86679 21.2592C7.28993 24.3078 7.7126 26.5801 8.72965 27.1688C9.20738 27.4452 9.99799 27.4354 10.9908 27.0833ZM6.34061 18.2647C6.60361 18.3542 6.86888 18.4375 7.13643 18.5147C7.57516 17.0993 8.10652 15.7145 8.72705 14.3695C8.11428 13.0434 7.58937 11.6782 7.15585 10.2827C6.78313 10.3885 6.41323 10.5053 6.04616 10.6332C3.12625 11.6547 1.37722 13.1577 1.37722 14.336C1.37722 14.8897 1.78079 15.5721 2.58049 16.2597C3.47023 17.0244 4.76841 17.7253 6.34061 18.2647Z" fill="#D23267"/>
<path fill-rule="evenodd" clip-rule="evenodd" d="M25.1511 8.98978C25.5003 9.09039 25.8469 9.19957 26.1909 9.31732C29.6841 10.5184 31.9415 12.4003 31.9396 14.3454C31.9396 16.3747 29.5272 18.3588 25.8192 19.5859C25.6229 19.6506 25.4224 19.7131 25.2177 19.7735C25.2918 20.0681 25.3567 20.356 25.4127 20.6373C26.1448 24.331 25.581 27.3668 23.8461 28.3703C22.3435 29.2396 20.0104 28.5628 17.5668 26.7183C17.9131 26.4002 18.1687 25.9958 18.3073 25.5467C20.3811 27.1361 22.2372 27.7058 23.154 27.1756C23.6329 26.8988 24.0202 26.2086 24.2129 25.1698C24.4271 24.0154 24.3823 22.5387 24.0573 20.9055C24.0055 20.6504 23.9471 20.3897 23.8821 20.1238C22.8816 20.3506 21.8703 20.5267 20.852 20.6513C20.8866 20.4124 20.9041 20.1714 20.9046 19.93V19.2528C21.8184 19.1317 22.6918 18.9798 23.5042 18.7945C23.1918 17.8288 22.8293 16.8801 22.4182 15.952C22.1177 16.5305 21.8051 17.1011 21.4801 17.6638C21.3456 17.8978 21.2043 18.128 21.063 18.3583C21.0104 18.444 20.9578 18.5297 20.9056 18.6156V15.8524C21.1708 15.3592 21.4284 14.8623 21.6731 14.3591C21.4271 13.8634 21.1698 13.3745 20.9056 12.8875V10.1399C20.9568 10.2234 21.0084 10.3068 21.0599 10.3901C21.2003 10.6171 21.3407 10.844 21.4746 11.0748C21.7961 11.6291 22.1062 12.1896 22.4049 12.7564C22.7966 11.8469 23.1421 10.9182 23.4402 9.97402C22.6376 9.79092 21.7875 9.63867 20.9056 9.51631V8.8154C20.9053 8.58208 20.889 8.34896 20.8568 8.1178C21.8863 8.25351 22.8784 8.42782 23.812 8.64304C23.8642 8.43032 23.9124 8.21652 23.9566 8.00157C24.637 4.70144 24.2155 2.18526 23.1328 1.561C22.2324 1.04258 20.3795 1.62755 18.3096 3.20848C18.1726 2.75844 17.9184 2.35287 17.5729 2.03333C20.0133 0.196922 22.3357 -0.491935 23.8266 0.365727C25.5865 1.37921 26.1015 4.45829 25.3136 8.28046C25.2631 8.51807 25.2089 8.75449 25.1511 8.98978ZM24.8425 18.4468C25.0284 18.3922 25.2091 18.3354 25.3858 18.277V18.2763C28.5879 17.2168 30.559 15.5952 30.559 14.3467C30.559 13.1742 28.7334 11.6523 25.7404 10.6229C25.431 10.5164 25.1096 10.4171 24.7788 10.3197C24.3811 11.6062 23.8498 12.9651 23.2048 14.3535C23.8807 15.7757 24.4331 17.1522 24.8425 18.4468Z" fill="#D23267"/>
<path d="M15.9709 2.39539C15.0902 2.3984 14.3769 3.13094 14.374 4.03551V24.7101C14.374 25.6159 15.0889 26.3502 15.9709 26.3502C16.8529 26.3502 17.5679 25.6159 17.5679 24.7101V4.03551C17.565 3.13094 16.8517 2.3984 15.9709 2.39539Z" fill="#D23267"/>
<path d="M13.974 5.19041C12.7854 5.90438 11.9778 7.25347 11.9778 8.79452V19.9516C11.9778 21.4923 12.7854 22.8414 13.974 23.5557V5.19041Z" fill="#FFCDA1"/>
<path d="M17.9661 5.19041V23.5557C19.154 22.8414 19.9624 21.4927 19.9624 19.9516V8.79452C19.9624 7.25217 19.154 5.90438 17.9661 5.19041Z" fill="#FFCDA1"/>
<path d="M15.9709 2.39539C15.0902 2.3984 14.3769 3.13094 14.374 4.03551V24.7101C14.374 25.6159 15.0889 26.3502 15.9709 26.3502C16.8529 26.3502 17.5679 25.6159 17.5679 24.7101V4.03551C17.565 3.13094 16.8517 2.3984 15.9709 2.39539Z" fill="#D23267"/>
<path d="M16.5111 23.1563C16.3818 23.1563 16.2769 23.0442 16.2769 22.906C16.2769 22.6643 16.1949 22.6233 15.8122 22.5375C15.398 22.445 14.7722 22.3051 14.7722 21.2986C14.7722 20.3436 15.3978 20.1796 15.8543 20.0596C16.3059 19.9413 16.5057 19.8712 16.5057 19.445C16.5057 18.9531 16.2476 18.8428 15.7914 18.6903C15.4145 18.5644 14.8985 18.3919 14.8985 17.7268C14.8985 17.0617 15.417 16.8765 15.7957 16.7441C16.237 16.5899 16.4867 16.4807 16.4867 16.0291C16.4867 15.63 16.3038 15.5671 15.8936 15.4628C15.4972 15.3621 14.8985 15.2101 14.8985 14.3311C14.8985 13.4306 15.5249 13.2314 15.9394 13.0997C16.3446 12.9693 16.4882 12.9014 16.4882 12.6334C16.4882 12.3742 16.4008 12.3266 16.0272 12.2353C15.6536 12.1441 15.09 12.0071 15.09 11.1385C15.09 10.27 15.706 10.0329 16.1556 9.85882C16.57 9.69811 16.699 9.6166 16.699 9.41836C16.699 9.24068 16.5932 9.18134 16.2019 9.05481C15.7494 8.90874 15.0656 8.68805 15.0656 7.67208C15.0656 6.34674 16.1696 5.73413 16.7536 5.59555C16.8353 5.57603 16.9206 5.60461 16.9772 5.67051C17.0339 5.73641 17.0533 5.82964 17.0283 5.91506C17.0032 6.00043 16.9374 6.06508 16.8558 6.08461C16.7987 6.0986 15.5344 6.42207 15.5344 7.67208C15.5344 8.28469 15.8393 8.41448 16.3376 8.57524C16.7075 8.69456 17.1677 8.84323 17.1677 9.41836C17.1677 9.99967 16.6953 10.1826 16.3138 10.3313C15.8448 10.5132 15.5572 10.6495 15.5572 11.1399C15.5572 11.5895 15.7329 11.6514 16.13 11.7482C16.4587 11.8281 16.9554 11.9494 16.9554 12.6347C16.9554 13.3005 16.4453 13.4626 16.0729 13.5803C15.6225 13.7237 15.3675 13.8294 15.3675 14.3301C15.3675 14.7925 15.5734 14.8652 16.0018 14.974C16.3815 15.0719 16.9554 15.2163 16.9554 16.0281C16.9554 16.8651 16.3694 17.0715 15.9412 17.2195C15.5249 17.3653 15.3675 17.4478 15.3675 17.7258C15.3675 17.9981 15.5136 18.0714 15.9311 18.211C16.3715 18.358 16.9747 18.5595 16.9747 19.4441C16.9747 20.2813 16.3916 20.434 15.9659 20.5454C15.4895 20.6703 15.2413 20.7606 15.2413 21.2973C15.2413 21.8978 15.5066 21.9572 15.9082 22.0472C16.2416 22.1218 16.7457 22.2346 16.7457 22.9063C16.7456 22.9727 16.7208 23.0364 16.6768 23.0832C16.6328 23.1301 16.5732 23.1564 16.5111 23.1563Z" fill="#FFCDA1"/>
</g>
<defs>
<clipPath id="clip0">
<rect width="32" height="28.7458" fill="white"/>
</clipPath>
</defs>
</svg>
